<?xml version="1.0" standalone="no"?>
<!DOCTYPE svg PUBLIC "-//W3C//DTD SVG 20010904//EN"
 "http://www.w3.org/TR/2001/REC-SVG-20010904/DTD/svg10.dtd">
<svg version="1.0" xmlns="http://www.w3.org/2000/svg"
 width="369.000000pt" height="354.000000pt" viewBox="0 0 369.000000 354.000000"
 preserveAspectRatio="xMidYMid meet">

<g transform="translate(0.000000,354.000000) scale(0.100000,-0.100000)"
fill="#000000" stroke="none">
<path d="M2420 3481 c-14 -5 -43 -17 -65 -28 -39 -20 -47 -21 -233 -10 -256
15 -477 0 -644 -43 -195 -50 -479 -168 -516 -214 -11 -15 -53 -61 -93 -104
-215 -229 -343 -410 -468 -662 -201 -405 -324 -733 -320 -853 2 -34 3 -36 6
-12 15 109 63 230 210 535 224 462 320 605 647 964 72 80 91 94 172 133 146
69 334 136 334 118 0 -2 -33 -71 -73 -152 -202 -408 -393 -905 -503 -1303 -30
-110 -35 -139 -35 -245 0 -155 18 -222 114 -435 86 -188 94 -217 105 -355 l8
-100 8 108 c10 130 1 173 -84 394 -75 195 -84 241 -77 401 6 141 3 129 137
542 87 268 166 491 321 908 l94 253 35 9 c135 36 220 43 527 46 l312 3 58 31
c51 28 65 31 117 27 45 -4 67 -12 95 -34 47 -38 86 -111 101 -187 38 -201 61
-270 105 -321 16 -19 16 -19 1 7 -36 61 -57 135 -70 251 -19 158 -38 209 -95
267 -61 61 -152 85 -231 61z"/>
<path d="M2381 3353 c7 -10 34 -40 60 -68 25 -27 84 -93 129 -145 46 -52 87
-97 92 -99 16 -6 -1 59 -32 124 -36 74 -107 148 -176 180 -65 31 -93 33 -73 8z"/>
<path d="M2834 3155 c175 -241 256 -368 256 -400 0 -9 -4 -14 -9 -11 -11 7
-91 -62 -91 -80 0 -25 44 -11 87 29 27 24 29 23 38 -24 6 -33 4 -37 -23 -48
-16 -7 -34 -23 -40 -37 -10 -21 -9 -24 9 -24 11 0 30 5 41 11 18 10 20 9 15
-6 -4 -9 -7 -25 -7 -36 0 -12 -7 -19 -19 -19 -30 0 -37 -21 -13 -41 14 -11 22
-28 22 -50 0 -17 15 -84 34 -148 55 -186 60 -222 53 -430 -7 -206 -22 -293
-66 -387 l-30 -63 -168 -85 c-92 -47 -163 -85 -158 -85 6 0 87 33 180 72 l170
72 43 85 c53 106 70 198 79 421 7 186 1 234 -50 394 -31 96 -32 106 -32 275 0
160 -2 179 -23 224 -39 86 -167 258 -293 396 l-41 45 36 -50z"/>
<path d="M1456 2959 c-30 -5 -62 -19 -84 -37 -153 -123 -131 -509 40 -686 l47
-48 58 4 c38 3 79 15 122 36 79 40 96 40 121 0 11 -18 20 -29 20 -25 0 13 -30
67 -38 68 -4 0 -15 2 -25 4 -11 2 -39 -5 -64 -16 -174 -74 -234 -35 -308 204
-25 78 -27 99 -23 195 7 168 54 249 156 268 47 9 97 -3 131 -32 30 -25 90
-138 92 -172 0 -10 3 -12 6 -5 7 20 -36 144 -64 181 -41 55 -101 75 -187 61z"/>
<path d="M2360 2857 c-14 -8 -59 -36 -100 -63 -49 -31 -103 -56 -155 -71 l-80
-23 80 3 c84 3 123 17 244 89 49 29 62 32 135 32 66 0 93 -5 146 -28 95 -40
98 -40 65 -11 -16 15 -57 40 -90 56 -51 25 -72 29 -140 29 -47 0 -90 -6 -105
-13z"/>
<path d="M2924 2751 c-48 -29 -78 -109 -72 -191 6 -78 22 -112 118 -245 72
-99 130 -205 130 -236 0 -9 -10 -29 -22 -44 -21 -27 -23 -27 -102 -21 l-81 6
55 -17 c101 -30 158 -14 180 52 18 56 -8 120 -115 280 -126 187 -147 253 -110
342 26 62 42 73 104 74 41 0 50 3 36 9 -34 15 -89 11 -121 -9z"/>
<path d="M2405 2751 c-44 -11 -87 -36 -113 -64 -13 -14 -57 -37 -98 -52 -41
-15 -74 -29 -74 -31 0 -7 123 8 148 17 13 5 42 22 65 37 53 36 99 52 151 52
39 0 40 0 18 -16 -27 -18 -30 -69 -5 -96 15 -17 15 -18 -13 -18 -16 1 -59 7
-96 14 -67 13 -110 13 -158 -1 -21 -5 -15 -8 35 -18 33 -7 87 -20 120 -29 32
-9 75 -16 95 -16 45 0 129 24 155 45 19 14 17 15 -20 9 -37 -5 -42 -3 -69 32
-28 35 -28 39 -15 63 17 30 51 31 103 4 l31 -16 -20 23 c-46 51 -164 81 -240
61z"/>
<path d="M1323 2000 c4 -168 11 -339 16 -381 16 -122 29 -144 142 -237 l101
-83 66 11 c37 6 162 14 277 17 235 7 373 -4 554 -42 63 -14 116 -23 118 -21 7
7 -162 64 -267 90 -58 14 -145 30 -195 36 -109 12 -352 12 -454 1 l-75 -9 -55
44 c-135 105 -130 95 -155 309 -58 481 -68 561 -73 565 -3 3 -3 -132 0 -300z"/>
<path d="M2827 1788 c-40 -14 -23 -28 34 -28 38 0 69 -9 122 -35 76 -38 100
-41 144 -23 l28 11 -43 8 c-23 4 -68 24 -100 44 -47 28 -67 35 -107 34 -28 0
-62 -5 -78 -11z"/>
<path d="M3238 1510 c10 -149 7 -308 -7 -358 -7 -24 -34 -89 -60 -145 -72
-152 -85 -203 -85 -337 0 -87 6 -134 22 -190 22 -80 68 -190 78 -190 3 0 3 8
-1 18 -17 45 -36 188 -37 287 -1 132 19 214 92 379 27 61 54 136 61 166 15 72
6 199 -25 325 -38 157 -47 166 -38 45z"/>
<path d="M320 1432 c142 -58 336 -59 447 -3 30 15 18 16 -223 16 -219 0 -251
-2 -224 -13z"/>
<path d="M2562 1105 c-71 -180 -66 -341 13 -480 35 -60 85 -127 85 -113 0 4
-14 56 -31 115 -30 102 -32 121 -38 323 l-6 215 -23 -60z"/>
</g>
</svg>
