<?xml version="1.0" standalone="no"?>
<!DOCTYPE svg PUBLIC "-//W3C//DTD SVG 20010904//EN"
 "http://www.w3.org/TR/2001/REC-SVG-20010904/DTD/svg10.dtd">
<svg version="1.0" xmlns="http://www.w3.org/2000/svg"
 width="1369.000000pt" height="483.000000pt" viewBox="0 0 1369.000000 483.000000"
 preserveAspectRatio="xMidYMid meet">

<g transform="translate(0.000000,483.000000) scale(0.100000,-0.100000)"
fill="#000000" stroke="none">
<path d="M2420 4771 c-14 -5 -43 -17 -65 -28 -39 -20 -47 -21 -233 -10 -256
15 -477 0 -644 -43 -195 -50 -479 -168 -516 -214 -11 -15 -53 -61 -93 -104
-215 -229 -343 -410 -468 -662 -201 -405 -324 -733 -320 -853 2 -34 3 -36 6
-12 15 109 63 230 210 535 224 462 320 605 647 964 72 80 91 94 172 133 146
69 334 136 334 118 0 -2 -33 -71 -73 -152 -202 -408 -393 -905 -503 -1303 -30
-110 -35 -139 -35 -245 0 -155 18 -222 114 -435 86 -188 94 -217 105 -355 l8
-100 8 108 c10 130 1 173 -84 394 -75 195 -84 241 -77 401 6 141 3 129 137
542 87 268 166 491 321 908 l94 253 35 9 c135 36 220 43 527 46 l312 3 58 31
c51 28 65 31 117 27 45 -4 67 -12 95 -34 47 -38 86 -111 101 -187 38 -201 61
-270 105 -321 16 -19 16 -19 1 7 -36 61 -57 135 -70 251 -19 158 -38 209 -95
267 -61 61 -152 85 -231 61z"/>
<path d="M2381 4643 c7 -10 34 -40 60 -68 25 -27 84 -93 129 -145 46 -52 87
-97 92 -99 16 -6 -1 59 -32 124 -36 74 -107 148 -176 180 -65 31 -93 33 -73 8z"/>
<path d="M2834 4445 c175 -241 256 -368 256 -400 0 -9 -4 -14 -9 -11 -11 7
-91 -62 -91 -80 0 -25 44 -11 87 29 27 24 29 23 38 -24 6 -33 4 -37 -23 -48
-16 -7 -34 -23 -40 -37 -10 -21 -9 -24 9 -24 11 0 30 5 41 11 18 10 20 9 15
-6 -4 -9 -7 -25 -7 -36 0 -12 -7 -19 -19 -19 -30 0 -37 -21 -13 -41 14 -11 22
-28 22 -50 0 -17 15 -84 34 -148 55 -186 60 -222 53 -430 -7 -206 -22 -293
-66 -387 l-30 -63 -168 -85 c-92 -47 -163 -85 -158 -85 6 0 87 33 180 72 l170
72 43 85 c53 106 70 198 79 421 7 186 1 234 -50 394 -31 96 -32 106 -32 275 0
160 -2 179 -23 224 -39 86 -167 258 -293 396 l-41 45 36 -50z"/>
<path d="M1456 4249 c-30 -5 -62 -19 -84 -37 -153 -123 -131 -509 40 -686 l47
-48 58 4 c38 3 79 15 122 36 79 40 96 40 121 0 11 -18 20 -29 20 -25 0 13 -30
67 -38 68 -4 0 -15 2 -25 4 -11 2 -39 -5 -64 -16 -174 -74 -234 -35 -308 204
-25 78 -27 99 -23 195 7 168 54 249 156 268 47 9 97 -3 131 -32 30 -25 90
-138 92 -172 0 -10 3 -12 6 -5 7 20 -36 144 -64 181 -41 55 -101 75 -187 61z"/>
<path d="M4141 4180 c-244 -64 -401 -258 -401 -494 1 -250 100 -368 509 -609
254 -149 309 -192 375 -291 23 -34 26 -49 26 -120 0 -101 -13 -147 -52 -192
-65 -74 -169 -106 -344 -105 -186 1 -363 31 -466 80 l-58 27 0 -137 0 -136
308 -8 c526 -12 650 10 773 136 90 93 125 207 117 386 -6 127 -27 190 -91 274
-79 105 -164 169 -422 319 -189 110 -233 139 -302 197 -132 111 -143 289 -23
397 75 67 118 81 255 81 106 0 133 -4 230 -32 61 -18 138 -44 173 -57 l62 -25
0 129 0 128 -107 26 c-152 36 -230 46 -368 45 -86 0 -141 -6 -194 -19z"/>
<path d="M2360 4147 c-14 -8 -59 -36 -100 -63 -49 -31 -103 -56 -155 -71 l-80
-23 80 3 c84 3 123 17 244 89 49 29 62 32 135 32 66 0 93 -5 146 -28 95 -40
98 -40 65 -11 -16 15 -57 40 -90 56 -51 25 -72 29 -140 29 -47 0 -90 -6 -105
-13z"/>
<path d="M5437 4153 c-2 -4 -4 -21 -2 -38 1 -16 3 -461 3 -987 l2 -958 135 0
135 0 0 395 0 395 79 0 c112 0 268 17 358 40 253 64 440 246 488 475 31 150
10 359 -46 454 -58 97 -159 171 -277 203 -71 20 -108 22 -473 26 -218 2 -399
0 -402 -5z m715 -230 c72 -25 116 -55 149 -102 96 -134 66 -380 -60 -507 -90
-90 -213 -131 -406 -136 l-120 -3 -3 380 c-1 209 -1 384 2 390 2 6 69 8 192 4
151 -5 200 -10 246 -26z"/>
<path d="M7030 3165 l0 -995 140 0 140 0 0 470 0 470 475 0 475 0 0 -470 0
-470 140 0 140 0 0 995 0 995 -140 0 -140 0 0 -420 0 -420 -475 0 -475 0 0
420 0 420 -140 0 -140 0 0 -995z"/>
<path d="M9130 3165 l0 -995 140 0 140 0 0 995 0 995 -140 0 -140 0 0 -995z"/>
<path d="M9997 4154 c-4 -4 -7 -452 -7 -995 l0 -989 120 0 120 0 0 759 c0 418
4 762 8 765 4 2 80 -106 168 -242 89 -136 313 -480 499 -764 l337 -518 139 0
139 0 0 995 0 995 -120 0 -120 0 0 -765 c0 -503 -3 -765 -10 -765 -5 0 -10 4
-10 10 0 5 -65 107 -143 227 -79 120 -195 297 -257 393 -63 96 -161 247 -218
335 -169 258 -265 405 -318 487 l-49 78 -136 0 c-75 0 -139 -3 -142 -6z"/>
<path d="M11910 4155 c0 -4 201 -324 477 -757 l144 -226 -207 -314 c-114 -172
-259 -392 -323 -488 -64 -96 -120 -180 -124 -187 -6 -10 20 -13 125 -13 l133
0 263 396 263 396 139 -219 c76 -120 190 -297 253 -393 l113 -175 167 -3 166
-2 -83 132 c-46 73 -127 201 -179 283 -366 576 -388 614 -377 635 6 11 114
175 240 365 213 319 318 479 362 548 l18 27 -133 0 -132 -1 -245 -365 c-135
-201 -248 -368 -252 -370 -8 -5 -30 27 -380 579 l-101 157 -163 0 c-90 0 -164
-2 -164 -5z"/>
<path d="M2924 4041 c-48 -29 -78 -109 -72 -191 6 -78 22 -112 118 -245 72
-99 130 -205 130 -236 0 -9 -10 -29 -22 -44 -21 -27 -23 -27 -102 -21 l-81 6
55 -17 c101 -30 158 -14 180 52 18 56 -8 120 -115 280 -126 187 -147 253 -110
342 26 62 42 73 104 74 41 0 50 3 36 9 -34 15 -89 11 -121 -9z"/>
<path d="M2405 4041 c-44 -11 -87 -36 -113 -64 -13 -14 -57 -37 -98 -52 -41
-15 -74 -29 -74 -31 0 -7 123 8 148 17 13 5 42 22 65 37 53 36 99 52 151 52
39 0 40 0 18 -16 -27 -18 -30 -69 -5 -96 15 -17 15 -18 -13 -18 -16 1 -59 7
-96 14 -67 13 -110 13 -158 -1 -21 -5 -15 -8 35 -18 33 -7 87 -20 120 -29 32
-9 75 -16 95 -16 45 0 129 24 155 45 19 14 17 15 -20 9 -37 -5 -42 -3 -69 32
-28 35 -28 39 -15 63 17 30 51 31 103 4 l31 -16 -20 23 c-46 51 -164 81 -240
61z"/>
<path d="M1323 3290 c4 -168 11 -339 16 -381 16 -122 29 -144 142 -237 l101
-83 66 11 c37 6 162 14 277 17 235 7 373 -4 554 -42 63 -14 116 -23 118 -21 7
7 -162 64 -267 90 -58 14 -145 30 -195 36 -109 12 -352 12 -454 1 l-75 -9 -55
44 c-135 105 -130 95 -155 309 -58 481 -68 561 -73 565 -3 3 -3 -132 0 -300z"/>
<path d="M2827 3078 c-40 -14 -23 -28 34 -28 38 0 69 -9 122 -35 76 -38 100
-41 144 -23 l28 11 -43 8 c-23 4 -68 24 -100 44 -47 28 -67 35 -107 34 -28 0
-62 -5 -78 -11z"/>
<path d="M3238 2800 c10 -149 7 -308 -7 -358 -7 -24 -34 -89 -60 -145 -72
-152 -85 -203 -85 -337 0 -87 6 -134 22 -190 22 -80 68 -190 78 -190 3 0 3 8
-1 18 -17 45 -36 188 -37 287 -1 132 19 214 92 379 27 61 54 136 61 166 15 72
6 199 -25 325 -38 157 -47 166 -38 45z"/>
<path d="M320 2722 c142 -58 336 -59 447 -3 30 15 18 16 -223 16 -219 0 -251
-2 -224 -13z"/>
<path d="M2562 2395 c-71 -180 -66 -341 13 -480 35 -60 85 -127 85 -113 0 4
-14 56 -31 115 -30 102 -32 121 -38 323 l-6 215 -23 -60z"/>
<path d="M3740 1660 l0 -80 4965 0 4965 0 0 80 0 80 -4965 0 -4965 0 0 -80z"/>
<path d="M3740 1345 c0 -13 558 -15 4960 -15 4402 0 4960 2 4960 15 0 13 -558
15 -4960 15 -4402 0 -4960 -2 -4960 -15z"/>
<path d="M8170 873 c-8 -3 -34 -19 -57 -34 -53 -37 -83 -97 -83 -171 0 -75 26
-110 125 -175 116 -74 143 -100 155 -142 19 -73 -27 -151 -102 -171 -83 -23
-190 37 -224 125 -12 34 -22 45 -38 45 -20 0 -21 -6 -24 -110 -2 -68 0 -110 6
-110 5 0 12 7 16 15 13 35 49 38 114 11 173 -73 341 27 342 202 0 97 -39 151
-160 222 -121 71 -154 132 -108 200 29 43 70 64 121 62 69 -3 122 -51 153
-137 6 -16 18 -31 27 -33 14 -3 17 6 17 61 0 35 -3 78 -6 94 -5 25 -10 29 -33
25 -16 -2 -49 3 -75 12 -45 16 -136 20 -166 9z"/>
<path d="M8740 860 c-23 -23 -19 -58 11 -83 36 -29 89 -4 89 44 0 55 -60 79
-100 39z"/>
<path d="M11156 790 c-17 -11 -54 -22 -83 -26 -61 -7 -69 -20 -18 -30 19 -3
39 -12 45 -19 8 -9 -12 -83 -76 -276 -47 -145 -90 -268 -94 -272 -4 -5 -26
-11 -49 -14 -82 -11 -38 -23 83 -23 123 0 174 12 95 23 -22 3 -43 7 -45 10 -4
3 88 296 186 590 17 52 17 57 2 56 -9 0 -30 -9 -46 -19z"/>
<path d="M11635 796 c-39 -17 -91 -71 -118 -121 -31 -60 -30 -166 3 -223 44
-78 117 -102 193 -63 49 25 48 15 -8 -97 -75 -149 -153 -195 -194 -113 -23 45
-44 56 -66 35 -22 -22 -19 -42 11 -69 71 -66 202 -28 286 82 115 153 166 381
111 493 -31 61 -76 90 -139 90 -27 -1 -62 -7 -79 -14z m137 -17 c65 -35 61
-201 -8 -311 -28 -43 -77 -78 -112 -78 -30 0 -78 25 -86 45 -19 50 7 199 47
270 39 69 108 101 159 74z"/>
<path d="M12313 663 c-213 -226 -263 -282 -263 -293 0 -6 43 -10 115 -10 63 0
115 -3 115 -7 0 -21 -55 -170 -68 -185 -8 -10 -26 -18 -39 -18 -12 0 -23 -4
-23 -10 0 -6 43 -10 110 -10 67 0 110 4 110 10 0 6 -14 10 -30 10 -17 0 -33 6
-36 13 -3 8 8 54 23 103 l29 89 49 5 c43 4 51 9 59 32 13 37 1 46 -27 20 -19
-18 -67 -31 -67 -19 0 1 29 92 65 202 36 110 65 203 65 208 0 4 -11 7 -24 7
-17 0 -59 -38 -163 -147z m30 -122 l-48 -151 -97 0 c-54 0 -98 2 -98 5 0 3 10
16 23 29 12 12 76 80 141 149 65 70 121 125 123 123 3 -2 -17 -72 -44 -155z"/>
<path d="M13010 773 c-18 -21 -71 -79 -119 -128 -47 -50 -121 -127 -163 -171
-43 -45 -78 -89 -78 -98 0 -14 16 -16 115 -16 63 0 115 -1 115 -3 0 -2 -14
-43 -30 -93 -31 -92 -48 -114 -87 -114 -13 0 -23 -4 -23 -10 0 -6 43 -10 110
-10 67 0 110 4 110 10 0 6 -10 10 -23 10 -45 0 -47 16 -14 116 l31 94 47 0
c44 0 48 2 58 31 14 40 14 39 -2 39 -7 0 -18 -9 -25 -20 -14 -22 -62 -28 -62
-7 0 7 18 67 40 132 22 66 51 155 64 198 l24 77 -28 0 c-20 0 -37 -11 -60 -37z
m-70 -227 l-52 -156 -95 0 c-53 0 -93 4 -91 9 5 14 282 309 287 305 1 -1 -20
-73 -49 -158z"/>
<path d="M8671 615 c-34 -30 -101 -117 -101 -134 0 -23 29 -10 49 22 11 18 29
42 40 52 40 35 34 -10 -25 -190 -55 -166 -57 -178 -43 -203 18 -33 53 -40 94
-18 32 18 118 133 109 148 -10 16 -22 7 -58 -47 -33 -50 -57 -67 -69 -47 -3 4
19 81 49 172 56 168 66 228 44 255 -19 22 -55 18 -89 -10z"/>
<path d="M9051 602 c-47 -49 -102 -132 -95 -143 10 -17 22 -8 59 45 21 30 43
57 51 60 32 12 22 -42 -40 -225 -36 -106 -66 -193 -66 -195 0 -2 15 -4 34 -4
38 0 24 -19 181 240 106 175 123 196 143 176 12 -12 5 -39 -44 -191 -55 -166
-57 -178 -43 -203 21 -38 67 -41 108 -6 45 38 94 112 86 131 -4 13 -14 6 -41
-32 -19 -28 -42 -54 -50 -58 -37 -21 -34 13 15 151 27 78 52 160 56 183 14 82
-35 131 -93 93 -35 -23 -39 -28 -124 -164 -83 -134 -108 -165 -83 -105 46 110
59 154 59 203 1 42 -3 57 -18 68 -32 23 -57 16 -95 -24z"/>
<path d="M9770 619 c-120 -54 -229 -252 -206 -374 11 -59 73 -115 127 -115 51
0 108 29 159 82 53 55 37 76 -19 25 -114 -103 -191 -86 -178 41 8 81 31 148
76 222 48 80 83 109 106 90 10 -8 14 -22 11 -35 -18 -70 59 -105 81 -37 13 41
5 69 -28 97 -37 30 -69 31 -129 4z"/>
<path d="M10233 619 c-81 -40 -152 -139 -188 -264 -15 -49 -16 -67 -6 -111 33
-146 190 -154 300 -15 52 66 25 71 -41 7 -80 -77 -145 -87 -167 -24 -25 71
-18 82 72 126 133 65 197 134 197 214 0 38 -6 48 -40 71 -33 23 -76 21 -127
-4z m91 -35 c9 -8 16 -23 16 -32 0 -36 -45 -105 -93 -143 -54 -43 -106 -73
-113 -66 -9 8 44 138 72 179 26 36 76 78 96 78 4 0 14 -7 22 -16z"/>
</g>
</svg>
